<?xml version="1.0" encoding="iso-8859-1"?>
<!-- Generator: Adobe Illustrator 19.0.0, SVG Export Plug-In . SVG Version: 6.00 Build 0)  -->
<svg version="1.1" id="Layer_1" xmlns="http://www.w3.org/2000/svg" xmlns:xlink="http://www.w3.org/1999/xlink" x="0px" y="0px"
	 viewBox="0 0 460 460" style="enable-background:new 0 0 460 460;" xml:space="preserve">
<g>
	<path style="fill:#FFC240;" d="M448.234,157.214C417.781,65.864,331.586,0,230,0C102.975,0,0,102.975,0,230
		c0,112.599,80.918,206.287,187.773,226.117L448.234,157.214z"/>
	<path style="fill:#FF984C;" d="M448.234,157.214L371.02,80l-70,20v62.039L268.981,130L167,100L48.98,130L167,248.02v43.609
		l-53.673,90.044l74.445,74.445C201.463,458.658,215.574,460,230,460c127.026,0,230-102.974,230-230
		C460,204.561,455.861,180.091,448.234,157.214z"/>
	<rect x="148.981" y="50" style="fill:#FFE1A0;" width="20" height="230"/>
	<polygon style="fill:#557714;" points="168.981,70 158.981,70 213.981,130 268.981,130 	"/>
	<polygon style="fill:#7FB21E;" points="168.981,70 148.981,70 48.981,130 213.981,130 	"/>
	<polygon style="fill:#9FC657;" points="148.981,70 103.981,130 158.981,130 158.981,70 	"/>
	<path style="fill:#FFFFFF;" d="M291.019,200v-90c0.001-16.542,13.459-30,30-30h50v20.001h-50c-5.514,0-10,4.486-10,10v90h-20V200z"
		/>
	<path style="fill:#AA1106;" d="M71.23,220C67.181,234.306,65,249.397,65,265c0,91.127,73.873,165,165,165l8.75-220L71.23,220z"/>
	<path style="fill:#550803;" d="M230,210v220c91.127,0,165-73.873,165-165c0-15.604-2.18-30.694-6.23-45L230,210z"/>
	<g>
		<circle style="fill:#AA1106;" cx="270" cy="380" r="10"/>
	</g>
	<g>
		<circle style="fill:#550803;" cx="130" cy="320" r="10"/>
	</g>
	<g>
		<circle style="fill:#AA1106;" cx="300" cy="350" r="10"/>
	</g>
	<path style="fill:#FFFFFF;" d="M230,220l10-15l-10-15H83.001c-4.858,9.503-8.811,19.543-11.771,30H230z"/>
	<path style="fill:#FFF0CF;" d="M388.77,220c-2.96-10.457-6.913-20.497-11.771-30H230v30H388.77z"/>
</g>
<g>
</g>
<g>
</g>
<g>
</g>
<g>
</g>
<g>
</g>
<g>
</g>
<g>
</g>
<g>
</g>
<g>
</g>
<g>
</g>
<g>
</g>
<g>
</g>
<g>
</g>
<g>
</g>
<g>
</g>
</svg>
