<?xml version="1.0" encoding="iso-8859-1"?>
<!-- Generator: Adobe Illustrator 19.0.0, SVG Export Plug-In . SVG Version: 6.00 Build 0)  -->
<svg version="1.1" id="Layer_1" xmlns="http://www.w3.org/2000/svg" xmlns:xlink="http://www.w3.org/1999/xlink" x="0px" y="0px"
	 viewBox="0 0 512 512" style="enable-background:new 0 0 512 512;" xml:space="preserve">
<circle style="fill:#AA1106;" cx="256" cy="256" r="256"/>
<path style="fill:#FF6E36;" d="M256.071,478.24c-69.57-0.055-132.001-32.249-172.745-82.5l99.625-172.325
	c6.196-10.716,21.391-19.484,33.769-19.484h78.769c12.378,0,27.569,8.77,33.758,19.49l99.462,172.295
	C387.965,445.968,325.642,478.184,256.071,478.24z"/>
<g>
	<path style="fill:#FF984C;" d="M235.805,421.786c0,4.661-3.779,8.44-8.44,8.44c-4.661,0-8.44-3.779-8.44-8.44
		c0-4.661,3.779-8.44,8.44-8.44C232.026,413.346,235.805,417.125,235.805,421.786"/>
	<circle style="fill:#FF984C;" cx="186.852" cy="390.279" r="8.44"/>
</g>
<rect x="216.717" y="114.215" style="fill:#FF5347;" width="33.758" height="112.224"/>
<g>
	<rect x="250.475" y="114.215" style="fill:#FF1909;" width="45.011" height="112.224"/>
	<path style="fill:#FF1909;" d="M278.505,294.091v75.86c0,12.43,10.076,22.505,22.506,22.505c12.43,0,22.505-10.076,22.505-22.505
		V216.267c-7.472-7.203-18.565-12.334-28.026-12.334h-78.769c-9.55,0-20.76,5.228-28.238,12.534v107.799
		c0,12.43,10.076,22.505,22.505,22.505c12.43,0,22.506-10.076,22.506-22.505v-30.175c0-12.43,10.076-22.505,22.505-22.505
		C268.43,271.585,278.505,281.662,278.505,294.091z"/>
</g>
<path style="fill:#FFC6C2;" d="M324.993,76.81c-4.028,0-7.941,0.493-11.685,1.416C306.78,52.662,283.599,33.758,256,33.758
	c-27.598,0-50.78,18.903-57.308,44.467c-3.744-0.923-7.656-1.416-11.685-1.416c-26.873,0-48.658,21.785-48.658,48.658h235.303
	C373.651,98.595,351.867,76.81,324.993,76.81z"/>
<g>
</g>
<g>
</g>
<g>
</g>
<g>
</g>
<g>
</g>
<g>
</g>
<g>
</g>
<g>
</g>
<g>
</g>
<g>
</g>
<g>
</g>
<g>
</g>
<g>
</g>
<g>
</g>
<g>
</g>
</svg>
