<?xml version="1.0" encoding="iso-8859-1"?>
<!-- Generator: Adobe Illustrator 19.0.0, SVG Export Plug-In . SVG Version: 6.00 Build 0)  -->
<svg version="1.1" id="Layer_1" xmlns="http://www.w3.org/2000/svg" xmlns:xlink="http://www.w3.org/1999/xlink" x="0px" y="0px"
	 viewBox="0 0 370.866 370.866" style="enable-background:new 0 0 370.866 370.866;" xml:space="preserve">
<g id="XMLID_810_">
	<polygon id="XMLID_811_" style="fill:#2CB79A;" points="205.137,0 202.171,167.148 217.566,167.406 220.532,0.258 	"/>
	<polygon id="XMLID_812_" style="fill:#2CB79A;" points="236.233,23.528 191.977,185.085 206.887,188.931 251.143,27.374 	"/>
	<g id="XMLID_813_">
		<g id="XMLID_814_">
			<path id="XMLID_53_" style="fill:#C1E8E6;" d="M185.433,322.668l-54.882,39.339c-3.861,2.767-1.903,8.859,2.847,8.859h104.071
				c4.75,0,6.708-6.092,2.847-8.859L185.433,322.668l-54.882,39.339c-3.861,2.767-1.903,8.859,2.847,8.859h104.071
				c4.75,0,6.708-6.092,2.847-8.859L185.433,322.668z"/>
			<path id="XMLID_818_" style="fill:#A0CFF1;" d="M185.433,322.668v43.311c0,2.699,2.188,4.887,4.887,4.887h47.148
				c4.75,0,6.708-6.092,2.847-8.859L185.433,322.668z"/>
		</g>
		<g id="XMLID_819_">
			<rect id="XMLID_46_" x="173.649" y="277.481" style="fill:#C1E8E6;" width="23.568" height="55.885"/>
			<rect id="XMLID_823_" x="185.433" y="277.481" style="fill:#A0CFF1;" width="11.784" height="55.885"/>
		</g>
		<g id="XMLID_824_">
			<path id="XMLID_39_" style="fill:#C1E8E6;" d="M175.595,290.429h19.676c34.564,0,62.584-28.02,62.584-62.584V80.798H113.011
				v147.047C113.011,262.409,141.031,290.429,175.595,290.429z"/>
			<path id="XMLID_828_" style="fill:#A0CFF1;" d="M185.433,80.798v209.631h9.838c34.564,0,62.584-28.02,62.584-62.584V80.798
				H185.433z"/>
		</g>
	</g>
	<g id="XMLID_829_">
		<path id="XMLID_33_" style="fill:#FF628B;" d="M185.433,259.534L185.433,259.534c28.208,0,51.075-22.867,51.075-51.075v-96.765
			h-102.15v96.765C134.358,236.667,157.225,259.534,185.433,259.534z"/>
		<path id="XMLID_830_" style="fill:#CF476A;" d="M185.433,111.694v147.84l0,0c28.208,0,51.075-22.867,51.075-51.075v-96.765
			H185.433z"/>
	</g>
</g>
<g>
</g>
<g>
</g>
<g>
</g>
<g>
</g>
<g>
</g>
<g>
</g>
<g>
</g>
<g>
</g>
<g>
</g>
<g>
</g>
<g>
</g>
<g>
</g>
<g>
</g>
<g>
</g>
<g>
</g>
</svg>
