<?xml version="1.0" encoding="iso-8859-1"?>
<!-- Generator: Adobe Illustrator 19.0.0, SVG Export Plug-In . SVG Version: 6.00 Build 0)  -->
<svg version="1.1" id="Layer_1" xmlns="http://www.w3.org/2000/svg" xmlns:xlink="http://www.w3.org/1999/xlink" x="0px" y="0px"
	 viewBox="0 0 512 512" style="enable-background:new 0 0 512 512;" xml:space="preserve">
<path style="fill:#EE5F80;" d="M487.489,138.894H87.781v65.362h-46.93v-65.362h-16.34c-8.987,0-16.34,7.353-16.34,16.34v185.191
	c0,8.987,7.353,16.34,16.34,16.34h16.34v-119.83h245.106v119.83h201.532c8.987,0,16.34-7.353,16.34-16.34V155.234
	C503.83,146.247,496.477,138.894,487.489,138.894z M394.894,324.085c-42.115,0-76.255-34.141-76.255-76.255
	s34.141-76.255,76.255-76.255s76.255,34.141,76.255,76.255S437.008,324.085,394.894,324.085z"/>
<circle style="fill:#80D2D2;" cx="394.894" cy="247.83" r="76.255"/>
<polygon style="fill:#ECD591;" points="239.028,236.936 239.028,305.021 224.681,305.021 224.681,373.106 285.957,373.106 
	285.957,236.936 "/>
<rect x="210.334" y="236.936" style="fill:#B23451;" width="28.694" height="68.085"/>
<polygon style="fill:#FFFFFF;" points="224.681,305.021 224.681,373.106 163.404,373.106 163.404,305.021 177.751,305.021 
	177.751,236.936 210.334,236.936 210.334,305.021 "/>
<rect x="149.057" y="236.936" style="fill:#B23451;" width="28.694" height="68.085"/>
<polygon style="fill:#ECD591;" points="163.404,305.021 163.404,373.106 102.128,373.106 102.128,305.021 116.475,305.021 
	116.475,236.936 149.057,236.936 149.057,305.021 "/>
<rect x="87.781" y="236.936" style="fill:#B23451;" width="28.694" height="68.085"/>
<polygon style="fill:#FFFFFF;" points="87.781,305.021 87.781,236.936 40.851,236.936 40.851,373.106 102.128,373.106 
	102.128,305.021 "/>
<rect x="40.851" y="138.894" style="fill:#B23451;" width="46.93" height="65.362"/>
<g>
	<circle style="fill:#700019;" cx="132.761" cy="187.915" r="8.17"/>
	<circle style="fill:#700019;" cx="194.037" cy="187.915" r="8.17"/>
	<circle style="fill:#700019;" cx="255.314" cy="187.915" r="8.17"/>
	<circle style="fill:#700019;" cx="132.761" cy="187.915" r="8.17"/>
	<circle style="fill:#700019;" cx="194.037" cy="187.915" r="8.17"/>
	<circle style="fill:#700019;" cx="255.314" cy="187.915" r="8.17"/>
</g>
<g>
	<path style="fill:#0CAAA9;" d="M394.894,299.574c-4.512,0-8.17-3.657-8.17-8.17v-87.149c0-4.513,3.658-8.17,8.17-8.17
		c4.512,0,8.17,3.657,8.17,8.17v87.149C403.064,295.917,399.406,299.574,394.894,299.574z"/>
	<path style="fill:#0CAAA9;" d="M362.213,284.775c-4.512,0-8.17-3.657-8.17-8.17v-57.551c0-4.513,3.658-8.17,8.17-8.17
		c4.512,0,8.17,3.657,8.17,8.17v57.551C370.383,281.118,366.725,284.775,362.213,284.775z"/>
	<path style="fill:#0CAAA9;" d="M427.574,284.775c-4.512,0-8.17-3.657-8.17-8.17v-57.551c0-4.513,3.658-8.17,8.17-8.17
		c4.512,0,8.17,3.657,8.17,8.17v57.551C435.745,281.118,432.087,284.775,427.574,284.775z"/>
</g>
<g>
	<path style="fill:#700019;" d="M394.894,163.404c-16.176,0-31.915,4.611-45.516,13.336c-3.799,2.436-4.902,7.49-2.466,11.288
		c2.437,3.798,7.49,4.903,11.288,2.465c10.963-7.032,23.651-10.749,36.694-10.749c37.542,0,68.085,30.542,68.085,68.085
		s-30.544,68.085-68.085,68.085s-68.085-30.542-68.085-68.085c0-13.043,3.717-25.731,10.749-36.693
		c2.437-3.798,1.333-8.852-2.465-11.288c-3.798-2.437-8.852-1.333-11.288,2.465c-8.725,13.6-13.336,29.338-13.336,45.516
		c0,46.552,37.873,84.426,84.426,84.426s84.426-37.874,84.426-84.426S441.446,163.404,394.894,163.404z"/>
	<path style="fill:#700019;" d="M487.489,130.723H24.511C10.995,130.723,0,141.719,0,155.234v185.191
		c0,13.515,10.995,24.511,24.511,24.511h8.17v8.17c0,4.513,3.658,8.17,8.17,8.17h245.106c4.512,0,8.17-3.657,8.17-8.17v-8.17
		h193.362c13.516,0,24.511-10.996,24.511-24.511V155.234C512,141.719,501.005,130.723,487.489,130.723z M49.021,147.064h30.586
		v49.021H49.021V147.064z M49.021,245.106h30.586v59.915c0,4.513,3.658,8.17,8.17,8.17h6.18v51.745H49.021V245.106z
		 M108.308,245.106v51.745h-12.36v-51.745H108.308z M140.885,245.106v59.915c0,4.513,3.658,8.17,8.17,8.17h6.179v51.745h-44.936
		v-51.745h6.18c4.512,0,8.17-3.657,8.17-8.17v-59.915H140.885z M169.584,245.106v51.745h-12.359v-51.745H169.584z M202.162,245.106
		v59.915c0,4.513,3.658,8.17,8.17,8.17h6.179v51.745h-44.936v-51.745h6.18c4.512,0,8.17-3.657,8.17-8.17v-59.915H202.162z
		 M230.861,245.106v51.745h-12.359v-51.745H230.861z M277.787,364.936h-44.936v-51.745h6.18c4.512,0,8.17-3.657,8.17-8.17v-59.915
		h30.586V364.936z M495.66,340.426c0,4.506-3.665,8.17-8.17,8.17H294.128v-111.66c0-4.513-3.658-8.17-8.17-8.17H40.851
		c-4.512,0-8.17,3.657-8.17,8.17v111.66h-8.17c-4.506,0-8.17-3.665-8.17-8.17V155.234c0-4.506,3.665-8.17,8.17-8.17h8.17v57.191
		c0,4.513,3.658,8.17,8.17,8.17h46.926c4.512,0,8.17-3.657,8.17-8.17v-57.191h391.542c4.506,0,8.17,3.665,8.17,8.17V340.426z"/>
</g>
<g>
</g>
<g>
</g>
<g>
</g>
<g>
</g>
<g>
</g>
<g>
</g>
<g>
</g>
<g>
</g>
<g>
</g>
<g>
</g>
<g>
</g>
<g>
</g>
<g>
</g>
<g>
</g>
<g>
</g>
</svg>
