<?xml version="1.0" encoding="iso-8859-1"?>
<!-- Generator: Adobe Illustrator 18.0.0, SVG Export Plug-In . SVG Version: 6.00 Build 0)  -->
<!DOCTYPE svg PUBLIC "-//W3C//DTD SVG 1.1//EN" "http://www.w3.org/Graphics/SVG/1.1/DTD/svg11.dtd">
<svg version="1.1" id="Capa_1" xmlns="http://www.w3.org/2000/svg" xmlns:xlink="http://www.w3.org/1999/xlink" x="0px" y="0px"
	 viewBox="0 0 131.414 131.414" style="enable-background:new 0 0 131.414 131.414;" xml:space="preserve">
<g>
	<circle style="fill:#F8BB17;" cx="65.707" cy="65.707" r="65.706"/>
	<g>
		<rect x="64.543" y="67.754" style="fill:#D1D2D3;" width="2.085" height="31.048"/>
		<rect x="66.628" y="67.754" style="fill:#E3E4E5;" width="2.302" height="31.048"/>
		<path style="fill:#EDEDED;" d="M47.13,103.811c4.29,0,11.834,0,19.498,0v-6.306C55.849,97.524,47.13,100.341,47.13,103.811z"/>
		<path style="fill:#FFFFFF;" d="M66.737,97.505c-0.036,0-0.072,0-0.108,0v6.306c7.398,0,14.91,0,19.716,0
			C86.344,100.329,77.566,97.505,66.737,97.505z"/>
		<polygon style="fill:#FFFFFF;" points="104.931,39.939 66.737,39.939 66.628,39.939 66.628,71.615 69.051,71.615 		"/>
		<polygon style="fill:#EDEDED;" points="28.542,39.939 64.424,71.615 66.628,71.615 66.628,39.939 		"/>
		<polygon style="fill:#E05A13;" points="48.616,53.611 64.947,68.029 66.628,68.029 66.628,53.611 		"/>
		<polygon style="fill:#F26C25;" points="84.857,53.611 66.628,53.611 66.628,68.029 68.527,68.029 		"/>
		<g>
			<path style="fill:#EDEDED;" d="M80.828,47.98c-0.426,0.251-0.568,0.798-0.318,1.225l0,0c0.251,0.425,0.798,0.567,1.224,0.317
				l18.694-10.979c0.425-0.25,0.568-0.797,0.318-1.224l0,0c-0.25-0.426-0.797-0.567-1.224-0.318L80.828,47.98z"/>
			
				<ellipse transform="matrix(0.5064 0.8623 -0.8623 0.5064 82.1692 -45.1361)" style="fill:#67BC47;" cx="80.51" cy="49.205" rx="6.113" ry="6.934"/>
		</g>
	</g>
</g>
<g>
</g>
<g>
</g>
<g>
</g>
<g>
</g>
<g>
</g>
<g>
</g>
<g>
</g>
<g>
</g>
<g>
</g>
<g>
</g>
<g>
</g>
<g>
</g>
<g>
</g>
<g>
</g>
<g>
</g>
</svg>
