<?xml version="1.0" encoding="UTF-8"?>
<svg width="40px" height="40px" viewBox="0 0 40 40" version="1.1" xmlns="http://www.w3.org/2000/svg" xmlns:xlink="http://www.w3.org/1999/xlink">
    <!-- Generator: Sketch 52.5 (67469) - http://www.bohemiancoding.com/sketch -->
    <title>Service desk discovery avatar</title>
    <desc>Created with Sketch.</desc>
    <defs>
        <linearGradient x1="-0.0047051602%" y1="50.0089432%" x2="100.004634%" y2="50.0089432%" id="linearGradient-1">
            <stop stop-color="#DE350B" offset="0%"></stop>
            <stop stop-color="#FF7452" offset="100%"></stop>
        </linearGradient>
    </defs>
    <g id="Service-desk-discovery-avatar" stroke="none" stroke-width="1" fill="none" fill-rule="evenodd">
        <rect id="Rectangle" fill="#6554C0" fill-rule="nonzero" x="0" y="0" width="40" height="40"></rect>
        <g id="Group" transform="translate(6.000000, 6.000000)">
            <g id="Illustration/Objects/Life-Preserver-Copy">
                <g id="Illustration/Objects/Life-Preserver">
                    <path d="M9.16303382,26.1817449 L11.4989372,20.2395227 C11.6527754,19.8567082 12.06897,19.6498292 12.4670203,19.758315 C13.3996627,20.0001651 14.3769767,20.0127558 15.3155401,19.7950126 C15.7156427,19.6968112 16.1258767,19.9138017 16.2698667,20.2997971 L18.4564908,26.2996155 C18.533129,26.5105888 18.5191831,26.7438534 18.4179543,26.9441928 C18.3167254,27.1445322 18.1372121,27.2941378 17.9219072,27.3575961 C15.2239615,28.1557836 12.3476769,28.1192493 9.67087536,27.2527923 C9.45724137,27.183942 9.28155034,27.0298787 9.18538659,26.8270675 C9.08922283,26.6242564 9.0811337,26.3907239 9.16303382,26.1817449 Z" id="Shape" fill="url(#linearGradient-1)" fill-rule="nonzero"></path>
                    <path d="M27.367944,13.9653179 C27.367944,21.3673764 21.3673899,27.3679304 13.9653314,27.3679304 C6.56327288,27.3679304 0.562718841,21.3673764 0.562718841,13.9653179 C0.562718841,6.56325935 6.56327288,0.562705314 13.9653314,0.562705314 C21.3673899,0.562705314 27.367944,6.56325935 27.367944,13.9653179 Z M13.9653314,7.42036522 C10.3506609,7.4203951 7.42041293,10.3506834 7.42043285,13.9653539 C7.42045277,17.5800244 10.350733,20.5102805 13.9654035,20.5102705 C17.580074,20.5102606 20.5103382,17.5799884 20.5103382,13.9653179 C20.5103382,12.2294791 19.8207752,10.5647366 18.5933468,9.33731834 C17.3659184,8.10990006 15.7011701,7.42035087 13.9653314,7.42036522 Z" id="_Compound_Path_" fill="#FF4E4A" fill-rule="nonzero"></path>
                    <path d="M26.8350512,5.05404058 L26.373457,8.74605024 C25.9401237,12.2120432 25.9401237,15.7185114 26.373457,19.1845043 L26.8350512,22.876514 C26.9708031,23.9623309 26.5976283,25.0500022 25.8238626,25.8237679 C25.0500968,26.5975336 23.9624255,26.9707084 22.8766087,26.8349565 L19.184599,26.3733623 C15.7186061,25.940029 12.2121379,25.940029 8.74614493,26.3733623 L5.05406763,26.8350377 C3.96825251,26.9707813 2.88058649,26.5976007 2.10682667,25.823833 C1.33306685,25.0500652 0.959897449,23.9623954 1.09565217,22.8765816 L1.55724638,19.184572 C1.99057969,15.7185791 1.99057969,12.2121108 1.55724638,8.74611787 L1.09565217,5.05404058 C0.959920348,3.96823777 1.33309992,2.88058801 2.10685668,2.10683654 C2.88061344,1.33308507 3.96826575,0.959912927 5.05406763,1.09565217 L8.74607729,1.55724638 C12.2120702,1.99057969 15.7185385,1.99057969 19.1845314,1.55724638 L22.8765952,1.09565217 C23.9624036,0.959899188 25.050068,1.33306522 25.8238345,2.10681853 C26.597601,2.88057184 26.9707856,3.96822983 26.8350512,5.05404058 Z" id="Shape" stroke="#EBF2F9" stroke-width="0.583333333" stroke-linecap="round"></path>
                    <path d="M9.16303382,26.1817449 L11.4989372,20.2395227 C11.6527754,19.8567082 12.06897,19.6498292 12.4670203,19.758315 C13.3996627,20.0001651 14.3769767,20.0127558 15.3155401,19.7950126 C15.7156427,19.6968112 16.1258767,19.9138017 16.2698667,20.2997971 L18.4564908,26.2996155 C18.533129,26.5105888 18.5191831,26.7438534 18.4179543,26.9441928 C18.3167254,27.1445322 18.1372121,27.2941378 17.9219072,27.3575961 C15.2239615,28.1557836 12.3476769,28.1192493 9.67087536,27.2527923 C9.45724137,27.183942 9.28155034,27.0298787 9.18538659,26.8270675 C9.08922283,26.6242564 9.0811337,26.3907239 9.16303382,26.1817449 Z M0.575082126,17.9291034 C-0.225269844,15.2291387 -0.189430428,12.3501207 0.677884058,9.67091594 C0.74673266,9.45728619 0.90078968,9.28159676 1.10359383,9.18542878 C1.30639798,9.0892608 1.53992472,9.08116134 1.74890435,9.16304734 L7.69055845,11.4987208 C8.0736944,11.6526739 8.28075901,12.0692048 8.17219903,12.4675884 C7.93024052,13.4009702 7.91791833,14.3790644 8.13628599,15.3182454 C8.23476974,15.7186345 8.01781101,16.1293228 7.63156908,16.2736406 L1.63337391,18.4631865 C1.42242956,18.5399394 1.18914482,18.5261116 0.988744635,18.4249766 C0.788344449,18.3238416 0.638644218,18.1443901 0.575082126,17.9291034 Z M19.7582609,15.4642106 C19.9999674,14.532285 20.0127896,13.555738 19.7956348,12.6177874 C19.6976996,12.2179771 19.9147131,11.8081921 20.3004599,11.6645295 L26.302199,9.48088116 C26.5132066,9.40435409 26.7464579,9.4184195 26.9467405,9.51974801 C27.1470231,9.62107652 27.2965338,9.80066095 27.3598821,10.0159923 C28.1558533,12.7119209 28.1185676,15.5854598 27.252914,18.259828 C27.1840575,18.4734469 27.0299976,18.6491228 26.8271961,18.7452779 C26.6243947,18.8414331 26.3908758,18.8495215 26.1819072,18.767629 L20.2390763,16.4315092 C19.8565539,16.2778154 19.6498348,15.8619404 19.7582609,15.4642106 Z M11.6534783,7.6321372 L9.46111884,1.6358087 C9.38426701,1.4249072 9.3979783,1.19162307 9.49900714,0.991176513 C9.60003597,0.790729959 9.77940181,0.64093884 9.99464734,0.577259903 C12.6964986,-0.225330609 15.5781493,-0.190256796 18.2596657,0.677857005 C18.4733013,0.746702924 18.6489973,0.900760187 18.7451705,1.10356713 C18.8413437,1.30637408 18.8494466,1.53990576 18.7675614,1.74889082 L16.4320773,7.69004444 C16.2779978,8.07344728 15.8611865,8.2806696 15.4625063,8.17207729 C14.5284314,7.93004037 13.5496177,7.91794519 12.6098473,8.13682705 C12.2091913,8.23553435 11.7981042,8.0185977 11.6534783,7.6321372 Z" id="_Compound_Path_2" fill="#F0F1F3" fill-rule="nonzero"></path>
                    <path d="M18.4379324,26.2487014 L16.2698531,20.2997159 C16.1258631,19.9137205 15.7156292,19.6967301 15.3155266,19.7949314 C14.3769651,20.0126872 13.3996492,20.000101 12.4670068,19.7582473 C12.0689644,19.6497677 11.6527799,19.8566388 11.4989372,20.2394415 L9.52081159,25.2715826 C12.2938422,26.6079555 15.441324,26.9528397 18.4379459,26.2486744 L18.4379324,26.2487014 Z" id="Shape" fill="#FFFFFF" fill-rule="nonzero"></path>
                    <path d="M26.1818396,18.767629 C26.3908097,18.8495251 26.6243319,18.8414368 26.8271349,18.7452784 C27.0299378,18.6491201 27.1839961,18.4734383 27.2528464,18.2598145 C28.1185005,15.585451 28.1557862,12.7119162 27.3598145,10.0159923 C27.2964701,9.80065875 27.1469592,9.6210723 26.9466747,9.51974539 C26.7463902,9.41841847 26.5131368,9.40435882 26.3021314,9.48089469 L21.5862957,11.196686 C22.1792415,13.0397363 21.9257661,15.0507343 20.8940193,16.689001 L26.1818396,18.767629 Z" id="Shape" fill="#FFFFFF" fill-rule="nonzero"></path>
                    <path d="M8.13623188,15.3182319 C7.91787081,14.3790495 7.93019763,13.4009559 8.17215845,12.4675749 C8.28070541,12.0691926 8.07364495,11.65267 7.69051787,11.4987072 L2.4857372,9.45271884 C1.66823689,12.2715005 1.79479154,15.2802728 2.84611208,18.0204483 L7.63155556,16.2736406 C8.01779199,16.1293116 8.23473459,15.718615 8.13623188,15.3182319 Z" id="Shape" fill="#FFFFFF" fill-rule="nonzero"></path>
                    <path d="M9.46113237,1.6358087 L11.6534918,7.6321372 C11.6703068,7.67760332 11.6912098,7.72145111 11.715944,7.76314203 C13.2021375,6.76841128 15.0307862,6.42551521 16.7763961,6.81423961 L18.7675749,1.74887729 C18.8494643,1.5398925 18.8413634,1.30635904 18.7451896,1.10355094 C18.6490159,0.900742848 18.4733173,0.746686008 18.2596792,0.677843478 C16.4803043,0.102659838 14.6034283,-0.108809114 12.7406763,0.0560135266 C11.5935393,0.28290733 10.4813236,0.660054093 9.43278068,1.17770435 C9.39760657,1.32992414 9.40745707,1.48908772 9.46113237,1.6358087 Z" id="Shape" fill="#FFFFFF" fill-rule="nonzero"></path>
                </g>
            </g>
        </g>
    </g>
</svg>